<mxfile host="app.diagrams.net" modified="2024-05-18T12:04:42.798Z" agent="Mozilla/5.0 (Windows NT 10.0; Win64; x64) AppleWebKit/537.36 (KHTML, like Gecko) Chrome/124.0.0.0 Safari/537.36" etag="i_3olFUYILJoB2G7Gdhq" version="24.4.4" type="device">
  <diagram name="Page-1" id="l5QNZylUbeeFp0ZJ2pdr">
    <mxGraphModel dx="1909" dy="1013" grid="1" gridSize="10" guides="1" tooltips="1" connect="1" arrows="1" fold="1" page="1" pageScale="1" pageWidth="900" pageHeight="1600" math="0" shadow="0">
      <root>
        <mxCell id="0" />
        <mxCell id="1" parent="0" />
        <UserObject label="&#xa;  &#xa;    &lt;element href=&quot;http://www.eclipse.org/uml2/5.0.0/UML#Class&quot; type=&quot;class&quot;&gt;&#xa;      &#xa;        &#xa;      &#xa;    &lt;/element&gt;&#xa;    &lt;element href=&quot;http://www.eclipse.org/uml2/5.0.0/UML#Class&quot; type=&quot;class&quot;&gt;&#xa;      &#xa;        &#xa;      &#xa;    &lt;/element&gt;&#xa;    &lt;element href=&quot;http://www.eclipse.org/uml2/5.0.0/UML#Class&quot; type=&quot;class&quot;&gt;&#xa;      &#xa;        &#xa;      &#xa;    &lt;/element&gt;&#xa;    &lt;element href=&quot;http://www.eclipse.org/uml2/5.0.0/UML#Class&quot; type=&quot;class&quot;&gt;&#xa;      &#xa;        &#xa;      &#xa;    &lt;/element&gt;&#xa;    &lt;element target=&quot;_8-JHtF6SEeuI6Eni7n9sKQ&quot; href=&quot;http://www.eclipse.org/uml2/5.0.0/UML#Connector&quot;&gt;&#xa;    &lt;element target=&quot;_8-JHuF6SEeuI6Eni7n9sKQ&quot; href=&quot;http://www.eclipse.org/uml2/5.0.0/UML#Connector&quot;&gt;&#xa;    &lt;element target=&quot;_8-JHvF6SEeuI6Eni7n9sKQ&quot; href=&quot;http://www.eclipse.org/uml2/5.0.0/UML#Connector&quot;&gt;&#xa;  &lt;/element&gt;&lt;/element&gt;&lt;/element&gt;&#xa;" link="&#xa;  &#xa;    &lt;element href=&quot;http://www.eclipse.org/uml2/5.0.0/UML#Class&quot; type=&quot;class&quot;&gt;&#xa;      &#xa;        &#xa;      &#xa;    &lt;/element&gt;&#xa;    &lt;element href=&quot;http://www.eclipse.org/uml2/5.0.0/UML#Class&quot; type=&quot;class&quot;&gt;&#xa;      &#xa;        &#xa;      &#xa;    &lt;/element&gt;&#xa;    &lt;element href=&quot;http://www.eclipse.org/uml2/5.0.0/UML#Class&quot; type=&quot;class&quot;&gt;&#xa;      &#xa;        &#xa;      &#xa;    &lt;/element&gt;&#xa;    &lt;element href=&quot;http://www.eclipse.org/uml2/5.0.0/UML#Class&quot; type=&quot;class&quot;&gt;&#xa;      &#xa;        &#xa;      &#xa;    &lt;/element&gt;&#xa;    &lt;element target=&quot;_8-JHtF6SEeuI6Eni7n9sKQ&quot; href=&quot;http://www.eclipse.org/uml2/5.0.0/UML#Connector&quot;&gt;&#xa;    &lt;element target=&quot;_8-JHuF6SEeuI6Eni7n9sKQ&quot; href=&quot;http://www.eclipse.org/uml2/5.0.0/UML#Connector&quot;&gt;&#xa;    &lt;element target=&quot;_8-JHvF6SEeuI6Eni7n9sKQ&quot; href=&quot;http://www.eclipse.org/uml2/5.0.0/UML#Connector&quot;&gt;&#xa;  &lt;/element&gt;&lt;/element&gt;&lt;/element&gt;&#xa;" id="A59vKusR_M7R2vR-ZpoU-1">
          <mxCell style="text;whiteSpace=wrap;html=1;" vertex="1" parent="1">
            <mxGeometry width="30" height="400" as="geometry" />
          </mxCell>
        </UserObject>
        <mxCell id="A59vKusR_M7R2vR-ZpoU-61" value="" style="edgeStyle=orthogonalEdgeStyle;rounded=0;orthogonalLoop=1;jettySize=auto;html=1;dashed=1;dashPattern=8 8;endArrow=open;endFill=0;" edge="1" parent="1" source="A59vKusR_M7R2vR-ZpoU-2" target="A59vKusR_M7R2vR-ZpoU-20">
          <mxGeometry relative="1" as="geometry" />
        </mxCell>
        <mxCell id="A59vKusR_M7R2vR-ZpoU-2" value="" style="rounded=0;whiteSpace=wrap;html=1;" vertex="1" parent="1">
          <mxGeometry x="90" y="100" width="640" height="100" as="geometry" />
        </mxCell>
        <mxCell id="A59vKusR_M7R2vR-ZpoU-3" value="" style="rounded=0;whiteSpace=wrap;html=1;" vertex="1" parent="1">
          <mxGeometry x="90" y="40" width="160" height="60" as="geometry" />
        </mxCell>
        <mxCell id="A59vKusR_M7R2vR-ZpoU-4" value="" style="rounded=0;whiteSpace=wrap;html=1;" vertex="1" parent="1">
          <mxGeometry x="110" y="130" width="130" height="60" as="geometry" />
        </mxCell>
        <mxCell id="A59vKusR_M7R2vR-ZpoU-5" value="" style="rounded=0;whiteSpace=wrap;html=1;" vertex="1" parent="1">
          <mxGeometry x="110" y="110" width="40" height="20" as="geometry" />
        </mxCell>
        <mxCell id="A59vKusR_M7R2vR-ZpoU-6" value="QuizPage" style="text;html=1;align=center;verticalAlign=middle;whiteSpace=wrap;rounded=0;" vertex="1" parent="1">
          <mxGeometry x="145" y="145" width="60" height="30" as="geometry" />
        </mxCell>
        <mxCell id="A59vKusR_M7R2vR-ZpoU-7" value="" style="rounded=0;whiteSpace=wrap;html=1;" vertex="1" parent="1">
          <mxGeometry x="320" y="130" width="130" height="60" as="geometry" />
        </mxCell>
        <mxCell id="A59vKusR_M7R2vR-ZpoU-8" value="" style="rounded=0;whiteSpace=wrap;html=1;" vertex="1" parent="1">
          <mxGeometry x="320" y="110" width="40" height="20" as="geometry" />
        </mxCell>
        <mxCell id="A59vKusR_M7R2vR-ZpoU-9" value="QuestionPage" style="text;html=1;align=center;verticalAlign=middle;whiteSpace=wrap;rounded=0;" vertex="1" parent="1">
          <mxGeometry x="355" y="145" width="60" height="30" as="geometry" />
        </mxCell>
        <mxCell id="A59vKusR_M7R2vR-ZpoU-10" value="" style="rounded=0;whiteSpace=wrap;html=1;" vertex="1" parent="1">
          <mxGeometry x="520" y="130" width="130" height="60" as="geometry" />
        </mxCell>
        <mxCell id="A59vKusR_M7R2vR-ZpoU-11" value="" style="rounded=0;whiteSpace=wrap;html=1;" vertex="1" parent="1">
          <mxGeometry x="520" y="110" width="40" height="20" as="geometry" />
        </mxCell>
        <mxCell id="A59vKusR_M7R2vR-ZpoU-12" value="ResultPage" style="text;html=1;align=center;verticalAlign=middle;whiteSpace=wrap;rounded=0;" vertex="1" parent="1">
          <mxGeometry x="555" y="145" width="60" height="30" as="geometry" />
        </mxCell>
        <mxCell id="A59vKusR_M7R2vR-ZpoU-16" value="«layer»" style="text;html=1;align=center;verticalAlign=middle;whiteSpace=wrap;rounded=0;" vertex="1" parent="1">
          <mxGeometry x="150" y="40" width="40" height="20" as="geometry" />
        </mxCell>
        <mxCell id="A59vKusR_M7R2vR-ZpoU-17" value="User Interface" style="text;html=1;align=center;verticalAlign=middle;whiteSpace=wrap;rounded=0;" vertex="1" parent="1">
          <mxGeometry x="155" y="70" width="30" height="20" as="geometry" />
        </mxCell>
        <mxCell id="A59vKusR_M7R2vR-ZpoU-62" value="" style="edgeStyle=orthogonalEdgeStyle;rounded=0;orthogonalLoop=1;jettySize=auto;html=1;dashed=1;dashPattern=8 8;endArrow=open;endFill=0;" edge="1" parent="1" source="A59vKusR_M7R2vR-ZpoU-20" target="A59vKusR_M7R2vR-ZpoU-33">
          <mxGeometry relative="1" as="geometry" />
        </mxCell>
        <mxCell id="A59vKusR_M7R2vR-ZpoU-20" value="" style="rounded=0;whiteSpace=wrap;html=1;" vertex="1" parent="1">
          <mxGeometry x="90" y="300" width="640" height="100" as="geometry" />
        </mxCell>
        <mxCell id="A59vKusR_M7R2vR-ZpoU-21" value="" style="rounded=0;whiteSpace=wrap;html=1;" vertex="1" parent="1">
          <mxGeometry x="90" y="240" width="160" height="60" as="geometry" />
        </mxCell>
        <mxCell id="A59vKusR_M7R2vR-ZpoU-22" value="" style="rounded=0;whiteSpace=wrap;html=1;" vertex="1" parent="1">
          <mxGeometry x="110" y="330" width="130" height="60" as="geometry" />
        </mxCell>
        <mxCell id="A59vKusR_M7R2vR-ZpoU-23" value="" style="rounded=0;whiteSpace=wrap;html=1;" vertex="1" parent="1">
          <mxGeometry x="110" y="310" width="40" height="20" as="geometry" />
        </mxCell>
        <mxCell id="A59vKusR_M7R2vR-ZpoU-24" value="&lt;font style=&quot;font-size: 12px;&quot;&gt;QuizSession&lt;span style=&quot;background-color: initial;&quot;&gt;Controler&lt;/span&gt;&lt;/font&gt;" style="text;html=1;align=center;verticalAlign=middle;whiteSpace=wrap;rounded=0;" vertex="1" parent="1">
          <mxGeometry x="135" y="345" width="80" height="30" as="geometry" />
        </mxCell>
        <mxCell id="A59vKusR_M7R2vR-ZpoU-25" value="" style="rounded=0;whiteSpace=wrap;html=1;" vertex="1" parent="1">
          <mxGeometry x="320" y="330" width="130" height="60" as="geometry" />
        </mxCell>
        <mxCell id="A59vKusR_M7R2vR-ZpoU-26" value="" style="rounded=0;whiteSpace=wrap;html=1;" vertex="1" parent="1">
          <mxGeometry x="320" y="310" width="40" height="20" as="geometry" />
        </mxCell>
        <mxCell id="A59vKusR_M7R2vR-ZpoU-27" value="QuizSessionService" style="text;html=1;align=center;verticalAlign=middle;whiteSpace=wrap;rounded=0;" vertex="1" parent="1">
          <mxGeometry x="355" y="345" width="60" height="30" as="geometry" />
        </mxCell>
        <mxCell id="A59vKusR_M7R2vR-ZpoU-28" value="" style="rounded=0;whiteSpace=wrap;html=1;" vertex="1" parent="1">
          <mxGeometry x="520" y="330" width="130" height="60" as="geometry" />
        </mxCell>
        <mxCell id="A59vKusR_M7R2vR-ZpoU-29" value="" style="rounded=0;whiteSpace=wrap;html=1;" vertex="1" parent="1">
          <mxGeometry x="520" y="310" width="40" height="20" as="geometry" />
        </mxCell>
        <mxCell id="A59vKusR_M7R2vR-ZpoU-30" value="QuizSessionRepository" style="text;html=1;align=center;verticalAlign=middle;whiteSpace=wrap;rounded=0;" vertex="1" parent="1">
          <mxGeometry x="555" y="345" width="60" height="30" as="geometry" />
        </mxCell>
        <mxCell id="A59vKusR_M7R2vR-ZpoU-31" value="«layer»" style="text;html=1;align=center;verticalAlign=middle;whiteSpace=wrap;rounded=0;" vertex="1" parent="1">
          <mxGeometry x="150" y="240" width="40" height="20" as="geometry" />
        </mxCell>
        <mxCell id="A59vKusR_M7R2vR-ZpoU-32" value="Quiz Session" style="text;html=1;align=center;verticalAlign=middle;whiteSpace=wrap;rounded=0;" vertex="1" parent="1">
          <mxGeometry x="155" y="270" width="30" height="20" as="geometry" />
        </mxCell>
        <mxCell id="A59vKusR_M7R2vR-ZpoU-63" value="" style="edgeStyle=orthogonalEdgeStyle;rounded=0;orthogonalLoop=1;jettySize=auto;html=1;dashed=1;dashPattern=8 8;endArrow=open;endFill=0;" edge="1" parent="1" source="A59vKusR_M7R2vR-ZpoU-33" target="A59vKusR_M7R2vR-ZpoU-47">
          <mxGeometry relative="1" as="geometry" />
        </mxCell>
        <mxCell id="A59vKusR_M7R2vR-ZpoU-33" value="" style="rounded=0;whiteSpace=wrap;html=1;" vertex="1" parent="1">
          <mxGeometry x="90" y="500" width="640" height="100" as="geometry" />
        </mxCell>
        <mxCell id="A59vKusR_M7R2vR-ZpoU-34" value="" style="rounded=0;whiteSpace=wrap;html=1;" vertex="1" parent="1">
          <mxGeometry x="90" y="440" width="160" height="60" as="geometry" />
        </mxCell>
        <mxCell id="A59vKusR_M7R2vR-ZpoU-35" value="" style="rounded=0;whiteSpace=wrap;html=1;" vertex="1" parent="1">
          <mxGeometry x="110" y="530" width="130" height="60" as="geometry" />
        </mxCell>
        <mxCell id="A59vKusR_M7R2vR-ZpoU-36" value="" style="rounded=0;whiteSpace=wrap;html=1;" vertex="1" parent="1">
          <mxGeometry x="110" y="510" width="40" height="20" as="geometry" />
        </mxCell>
        <mxCell id="A59vKusR_M7R2vR-ZpoU-37" value="QuizController" style="text;html=1;align=center;verticalAlign=middle;whiteSpace=wrap;rounded=0;" vertex="1" parent="1">
          <mxGeometry x="140" y="545" width="60" height="30" as="geometry" />
        </mxCell>
        <mxCell id="A59vKusR_M7R2vR-ZpoU-38" value="" style="rounded=0;whiteSpace=wrap;html=1;" vertex="1" parent="1">
          <mxGeometry x="320" y="530" width="130" height="60" as="geometry" />
        </mxCell>
        <mxCell id="A59vKusR_M7R2vR-ZpoU-39" value="" style="rounded=0;whiteSpace=wrap;html=1;" vertex="1" parent="1">
          <mxGeometry x="320" y="510" width="40" height="20" as="geometry" />
        </mxCell>
        <mxCell id="A59vKusR_M7R2vR-ZpoU-40" value="QuizService" style="text;html=1;align=center;verticalAlign=middle;whiteSpace=wrap;rounded=0;" vertex="1" parent="1">
          <mxGeometry x="355" y="545" width="60" height="30" as="geometry" />
        </mxCell>
        <mxCell id="A59vKusR_M7R2vR-ZpoU-41" value="" style="rounded=0;whiteSpace=wrap;html=1;" vertex="1" parent="1">
          <mxGeometry x="520" y="530" width="130" height="60" as="geometry" />
        </mxCell>
        <mxCell id="A59vKusR_M7R2vR-ZpoU-42" value="" style="rounded=0;whiteSpace=wrap;html=1;" vertex="1" parent="1">
          <mxGeometry x="520" y="510" width="40" height="20" as="geometry" />
        </mxCell>
        <mxCell id="A59vKusR_M7R2vR-ZpoU-43" value="QuizRepository" style="text;html=1;align=center;verticalAlign=middle;whiteSpace=wrap;rounded=0;" vertex="1" parent="1">
          <mxGeometry x="555" y="545" width="60" height="30" as="geometry" />
        </mxCell>
        <mxCell id="A59vKusR_M7R2vR-ZpoU-44" value="«layer»" style="text;html=1;align=center;verticalAlign=middle;whiteSpace=wrap;rounded=0;" vertex="1" parent="1">
          <mxGeometry x="150" y="440" width="40" height="20" as="geometry" />
        </mxCell>
        <mxCell id="A59vKusR_M7R2vR-ZpoU-45" value="Quiz Management" style="text;html=1;align=center;verticalAlign=middle;whiteSpace=wrap;rounded=0;" vertex="1" parent="1">
          <mxGeometry x="155" y="470" width="30" height="20" as="geometry" />
        </mxCell>
        <mxCell id="A59vKusR_M7R2vR-ZpoU-47" value="" style="rounded=0;whiteSpace=wrap;html=1;" vertex="1" parent="1">
          <mxGeometry x="90" y="700" width="640" height="100" as="geometry" />
        </mxCell>
        <mxCell id="A59vKusR_M7R2vR-ZpoU-48" value="" style="rounded=0;whiteSpace=wrap;html=1;" vertex="1" parent="1">
          <mxGeometry x="90" y="640" width="160" height="60" as="geometry" />
        </mxCell>
        <mxCell id="A59vKusR_M7R2vR-ZpoU-49" value="" style="rounded=0;whiteSpace=wrap;html=1;" vertex="1" parent="1">
          <mxGeometry x="110" y="730" width="130" height="60" as="geometry" />
        </mxCell>
        <mxCell id="A59vKusR_M7R2vR-ZpoU-50" value="" style="rounded=0;whiteSpace=wrap;html=1;" vertex="1" parent="1">
          <mxGeometry x="110" y="710" width="40" height="20" as="geometry" />
        </mxCell>
        <mxCell id="A59vKusR_M7R2vR-ZpoU-51" value="QuestionController" style="text;html=1;align=center;verticalAlign=middle;whiteSpace=wrap;rounded=0;" vertex="1" parent="1">
          <mxGeometry x="140" y="745" width="60" height="30" as="geometry" />
        </mxCell>
        <mxCell id="A59vKusR_M7R2vR-ZpoU-52" value="" style="rounded=0;whiteSpace=wrap;html=1;" vertex="1" parent="1">
          <mxGeometry x="320" y="730" width="130" height="60" as="geometry" />
        </mxCell>
        <mxCell id="A59vKusR_M7R2vR-ZpoU-53" value="" style="rounded=0;whiteSpace=wrap;html=1;" vertex="1" parent="1">
          <mxGeometry x="320" y="710" width="40" height="20" as="geometry" />
        </mxCell>
        <mxCell id="A59vKusR_M7R2vR-ZpoU-54" value="QuestionService" style="text;html=1;align=center;verticalAlign=middle;whiteSpace=wrap;rounded=0;" vertex="1" parent="1">
          <mxGeometry x="355" y="745" width="60" height="30" as="geometry" />
        </mxCell>
        <mxCell id="A59vKusR_M7R2vR-ZpoU-55" value="" style="rounded=0;whiteSpace=wrap;html=1;" vertex="1" parent="1">
          <mxGeometry x="520" y="730" width="130" height="60" as="geometry" />
        </mxCell>
        <mxCell id="A59vKusR_M7R2vR-ZpoU-56" value="" style="rounded=0;whiteSpace=wrap;html=1;" vertex="1" parent="1">
          <mxGeometry x="520" y="710" width="40" height="20" as="geometry" />
        </mxCell>
        <mxCell id="A59vKusR_M7R2vR-ZpoU-57" value="QuestionRepository" style="text;html=1;align=center;verticalAlign=middle;whiteSpace=wrap;rounded=0;" vertex="1" parent="1">
          <mxGeometry x="555" y="745" width="60" height="30" as="geometry" />
        </mxCell>
        <mxCell id="A59vKusR_M7R2vR-ZpoU-58" value="«layer»" style="text;html=1;align=center;verticalAlign=middle;whiteSpace=wrap;rounded=0;" vertex="1" parent="1">
          <mxGeometry x="150" y="640" width="40" height="20" as="geometry" />
        </mxCell>
        <mxCell id="A59vKusR_M7R2vR-ZpoU-59" value="Quiz Bank" style="text;html=1;align=center;verticalAlign=middle;whiteSpace=wrap;rounded=0;" vertex="1" parent="1">
          <mxGeometry x="155" y="670" width="30" height="20" as="geometry" />
        </mxCell>
        <mxCell id="A59vKusR_M7R2vR-ZpoU-64" value="User Input" style="text;html=1;align=center;verticalAlign=middle;whiteSpace=wrap;rounded=0;" vertex="1" parent="1">
          <mxGeometry x="430" y="240" width="60" height="30" as="geometry" />
        </mxCell>
        <mxCell id="A59vKusR_M7R2vR-ZpoU-65" value="Session Control" style="text;html=1;align=center;verticalAlign=middle;whiteSpace=wrap;rounded=0;" vertex="1" parent="1">
          <mxGeometry x="430" y="440" width="60" height="30" as="geometry" />
        </mxCell>
        <mxCell id="A59vKusR_M7R2vR-ZpoU-66" value="Data Management" style="text;html=1;align=center;verticalAlign=middle;whiteSpace=wrap;rounded=0;" vertex="1" parent="1">
          <mxGeometry x="430" y="640" width="60" height="30" as="geometry" />
        </mxCell>
      </root>
    </mxGraphModel>
  </diagram>
</mxfile>
